PathFileType	4	(X/Y/Z)	9_coords_data.trc
DataRate	CameraRate	NumFrames	NumMarkers	Units	OrigDataRate	OrigDataStartFrame	OrigNumFrames
30.0	30.0	4	21	m	30.0	1	47
Frame#	Time	THUMB_TIP	THUMB_IP	THUMB_MCP	THUMB_CMC	INDEX_TIP	INDEX_DIP	INDEX_PIP	INDEX_MCP	MIDDLE_TIP	MIDDLE_DIP	MIDDLE_PIP	MIDDLE_MCP	RING_TIP	RING_DIP	RING_PIP	RING_MCP	PINKY_TIP	PINKY_DIP	PINKY_PIP	PINKY_MCP	WRIST
X1	Y1	Z1	X2	Y2	Z2	X3	Y3	Z3	X4	Y4	Z4	X5	Y5	Z5	X6	Y6	Z6	X7	Y7	Z7	X8	Y8	Z8	X9	Y9	Z9	X10	Y10	Z10	X11	Y11	Z11	X12	Y12	Z12	X13	Y13	Z13	X14	Y14	Z14	X15	Y15	Z15	X16	Y16	Z16	X17	Y17	Z17	X18	Y18	Z18	X19	Y19	Z19	X20	Y20	Z20	X21	Y21	Z21
0	0.0	0.02341889953613281	-0.008909210205078125	1.022530029296875	0.02139389991760254	-0.002846719980239868	1.0459100341796874	0.011454500198364258	-0.0038619599342346192	1.0716199951171874	-0.014284199714660644	0.005447909832000732	1.08943994140625	0.04858169937133789	-0.12147699737548828	1.04281005859375	0.03845330047607422	-0.10236000061035157	1.0493299560546876	0.02889859962463379	-0.08670339965820313	1.0573199462890626	0.01135949993133545	-0.05222990036010742	1.070530029296875	0.016747600555419923	-0.012928199768066407	1.0261700439453125	0.014959600448608399	-0.032703399658203125	1.030050048828125	0.009645259857177735	-0.0611864013671875	1.0313800048828126	-0.019566299438476563	-0.05625450134277344	1.0675699462890624	0.00880303955078125	-0.006420239925384521	1.0302099609375	0.001003849983215332	-0.023329999923706053	1.0226400146484376	-0.014616100311279297	-0.047195499420166015	1.020739990234375	-0.032840198516845706	-0.04643970108032226	1.05556005859375	-0.06014799880981445	-0.0724135971069336	1.000489990234375	-0.05729359817504883	-0.057209201812744144	1.0155399780273437	-0.05542060089111328	-0.0463390007019043	1.0298900146484375	-0.04536899948120117	-0.025797800064086916	1.0515999755859375	-0.04149800109863281	-0.0005194439888000481	1.1186500244140625
1	0.03333333333333333	0.021955600738525392	-0.008120490074157714	1.0228800048828126	0.019394399642944336	-0.003678410053253174	1.0468499755859375	0.010011300086975098	-0.003999269962310791	1.0726600341796875	-0.013316699981689453	0.004543049812316895	1.0908800048828124	0.048376201629638675	-0.12163500213623046	1.04177001953125	0.03941469955444336	-0.10183000183105469	1.049050048828125	0.02866780090332031	-0.08586840057373046	1.0576600341796876	0.00970028018951416	-0.05254090118408203	1.07027001953125	0.01632480049133301	-0.012120699882507325	1.027489990234375	0.013561800003051757	-0.03306890106201172	1.0300999755859375	0.009376239776611329	-0.060680999755859374	1.030260009765625	-0.016690200805664062	-0.056778499603271484	1.0658399658203126	0.007228330135345459	-0.0065683798789978026	1.0295999755859375	-0.000147182002663612	-0.023479000091552734	1.0219000244140626	-0.015543399810791015	-0.048131301879882814	1.0216300048828124	-0.034084400177001956	-0.04530080032348633	1.056010009765625	-0.06067359924316406	-0.07198249816894531	0.9994169921875	-0.05800289916992187	-0.05744319915771484	1.0144500122070312	-0.05517190170288086	-0.04608700180053711	1.029219970703125	-0.045853500366210935	-0.02569179916381836	1.0501500244140625	-0.04211270141601563	-0.000266422986984252	1.1184000244140626
2	0.06666666666666667	0.021460399627685547	-0.008448630332946778	1.0226400146484376	0.01886520004272461	-0.004054959774017334	1.0466300048828125	0.00967294979095459	-0.004291170120239258	1.07225	-0.013716400146484375	0.00434768009185791	1.0903900146484375	0.04786520004272461	-0.12181900024414062	1.041260009765625	0.03886859893798828	-0.10206900024414063	1.0486500244140624	0.02808340072631836	-0.08619139862060547	1.05725	0.009345820426940918	-0.052854400634765625	1.0698900146484376	0.015880599975585937	-0.012460700035095215	1.027280029296875	0.013057600021362305	-0.033451499938964846	1.02997998046875	0.008856120109558106	-0.06107690048217773	1.0301400146484374	-0.01677359962463379	-0.05721989822387695	1.065219970703125	0.0066859197616577146	-0.006833859920501709	1.02918994140625	-0.000645577013492584	-0.023602800369262697	1.02175	-0.0160093994140625	-0.04842440032958984	1.0213099975585938	-0.03448839950561523	-0.04584809875488281	1.0554200439453125	-0.061266998291015624	-0.0722157974243164	0.9991539916992187	-0.05858649826049805	-0.05774779891967773	1.0142000122070312	-0.05576959991455078	-0.04653459930419922	1.028969970703125	-0.046375099182128905	-0.026065200805664063	1.05018994140625	-0.04224390029907227	-0.0007615489959716791	1.1173399658203125
3	0.1	0.02094860076904297	-0.00907882022857666	1.0225	0.01835140037536621	-0.004615809917449951	1.0460699462890626	0.009239620208740234	-0.004608329772949219	1.07222998046875	-0.01407730007171631	0.003815540075302124	1.0900699462890624	0.04736320114135742	-0.1222750015258789	1.040969970703125	0.0383843994140625	-0.10256099700927734	1.0483900146484375	0.027596500396728514	-0.08673059844970703	1.0570400390625	0.008753700256347656	-0.053494998931884766	1.0699200439453125	0.01535599994659424	-0.013107099533081056	1.027050048828125	0.012482600212097168	-0.03392060089111328	1.0293499755859374	0.008259160041809082	-0.06156019973754883	1.02975	-0.0168710994720459	-0.05762350082397461	1.06481005859375	0.006419300079345703	-0.007432360172271728	1.0288800048828124	-0.0011734000444412228	-0.024107500076293944	1.0216400146484375	-0.016565399169921877	-0.048959400177001955	1.0211599731445313	-0.03524050140380859	-0.046277301788330075	1.0554200439453125	-0.062085498809814454	-0.07246649932861328	0.99889599609375	-0.059338001251220705	-0.05806389999389648	1.014010009765625	-0.05642610168457031	-0.04685599899291992	1.028780029296875	-0.0469281005859375	-0.026621599197387696	1.0496700439453126	-0.04290470123291015	-0.001121790051460266	1.117949951171875
